G04 EAGLE Gerber RS-274X export*
G75*
%MOMM*%
%FSLAX34Y34*%
%LPD*%
%INSoldermask Top*%
%IPNEG*%
%AMOC8*
5,1,8,0,0,1.08239X$1,22.5*%
G01*
%ADD10C,1.524000*%
%ADD11C,0.409087*%
%ADD12C,1.803400*%
%ADD13P,1.951982X8X22.500000*%
%ADD14C,2.082800*%
%ADD15C,0.401278*%
%ADD16C,0.414734*%
%ADD17C,0.403991*%
%ADD18C,0.505344*%
%ADD19P,1.798066X8X292.500000*%
%ADD20C,3.519200*%
%ADD21C,0.404144*%
%ADD22C,0.390478*%
%ADD23C,0.400800*%
%ADD24P,2.254402X8X112.500000*%
%ADD25C,3.403200*%
%ADD26C,0.609600*%
%ADD27C,1.219200*%
%ADD28C,0.401938*%


D10*
X882904Y101600D02*
X869696Y101600D01*
X869696Y127000D02*
X882904Y127000D01*
X882904Y152400D02*
X869696Y152400D01*
X869696Y177800D02*
X882904Y177800D01*
X882904Y203200D02*
X869696Y203200D01*
X869696Y228600D02*
X882904Y228600D01*
X882904Y254000D02*
X869696Y254000D01*
X869696Y279400D02*
X882904Y279400D01*
X882904Y304800D02*
X869696Y304800D01*
X869696Y330200D02*
X882904Y330200D01*
X882904Y355600D02*
X869696Y355600D01*
X869696Y381000D02*
X882904Y381000D01*
X882904Y406400D02*
X869696Y406400D01*
X869696Y431800D02*
X882904Y431800D01*
X730504Y431800D02*
X717296Y431800D01*
X717296Y406400D02*
X730504Y406400D01*
X730504Y381000D02*
X717296Y381000D01*
X717296Y355600D02*
X730504Y355600D01*
X730504Y330200D02*
X717296Y330200D01*
X717296Y304800D02*
X730504Y304800D01*
X730504Y279400D02*
X717296Y279400D01*
X717296Y254000D02*
X730504Y254000D01*
X730504Y228600D02*
X717296Y228600D01*
X717296Y203200D02*
X730504Y203200D01*
X730504Y177800D02*
X717296Y177800D01*
X717296Y152400D02*
X730504Y152400D01*
X730504Y127000D02*
X717296Y127000D01*
X717296Y101600D02*
X730504Y101600D01*
X692404Y101600D02*
X679196Y101600D01*
X679196Y127000D02*
X692404Y127000D01*
X692404Y152400D02*
X679196Y152400D01*
X679196Y177800D02*
X692404Y177800D01*
X692404Y203200D02*
X679196Y203200D01*
X679196Y228600D02*
X692404Y228600D01*
X692404Y254000D02*
X679196Y254000D01*
X679196Y279400D02*
X692404Y279400D01*
X692404Y304800D02*
X679196Y304800D01*
X679196Y330200D02*
X692404Y330200D01*
X692404Y355600D02*
X679196Y355600D01*
X679196Y381000D02*
X692404Y381000D01*
X692404Y406400D02*
X679196Y406400D01*
X679196Y431800D02*
X692404Y431800D01*
X540004Y431800D02*
X526796Y431800D01*
X526796Y406400D02*
X540004Y406400D01*
X540004Y381000D02*
X526796Y381000D01*
X526796Y355600D02*
X540004Y355600D01*
X540004Y330200D02*
X526796Y330200D01*
X526796Y304800D02*
X540004Y304800D01*
X540004Y279400D02*
X526796Y279400D01*
X526796Y254000D02*
X540004Y254000D01*
X540004Y228600D02*
X526796Y228600D01*
X526796Y203200D02*
X540004Y203200D01*
X540004Y177800D02*
X526796Y177800D01*
X526796Y152400D02*
X540004Y152400D01*
X540004Y127000D02*
X526796Y127000D01*
X526796Y101600D02*
X540004Y101600D01*
X215900Y425196D02*
X215900Y438404D01*
X190500Y438404D02*
X190500Y425196D01*
X165100Y425196D02*
X165100Y438404D01*
X139700Y438404D02*
X139700Y425196D01*
X139700Y362204D02*
X139700Y348996D01*
X165100Y348996D02*
X165100Y362204D01*
X190500Y362204D02*
X190500Y348996D01*
X215900Y348996D02*
X215900Y362204D01*
X260350Y362204D02*
X260350Y348996D01*
X285750Y348996D02*
X285750Y362204D01*
X412750Y362204D02*
X412750Y348996D01*
X438150Y348996D02*
X438150Y362204D01*
X311150Y362204D02*
X311150Y348996D01*
X336550Y348996D02*
X336550Y362204D01*
X387350Y362204D02*
X387350Y348996D01*
X361950Y348996D02*
X361950Y362204D01*
X463550Y362204D02*
X463550Y348996D01*
X488950Y348996D02*
X488950Y362204D01*
X488950Y425196D02*
X488950Y438404D01*
X463550Y438404D02*
X463550Y425196D01*
X438150Y425196D02*
X438150Y438404D01*
X412750Y438404D02*
X412750Y425196D01*
X387350Y425196D02*
X387350Y438404D01*
X361950Y438404D02*
X361950Y425196D01*
X336550Y425196D02*
X336550Y438404D01*
X311150Y438404D02*
X311150Y425196D01*
X285750Y425196D02*
X285750Y438404D01*
X260350Y438404D02*
X260350Y425196D01*
X412242Y279400D02*
X425450Y279400D01*
X425450Y254000D02*
X412242Y254000D01*
X412242Y127000D02*
X425450Y127000D01*
X425450Y101600D02*
X412242Y101600D01*
X412242Y228600D02*
X425450Y228600D01*
X425450Y203200D02*
X412242Y203200D01*
X412242Y152400D02*
X425450Y152400D01*
X425450Y177800D02*
X412242Y177800D01*
X488442Y101600D02*
X501650Y101600D01*
X501650Y127000D02*
X488442Y127000D01*
X488442Y152400D02*
X501650Y152400D01*
X501650Y177800D02*
X488442Y177800D01*
X488442Y203200D02*
X501650Y203200D01*
X501650Y228600D02*
X488442Y228600D01*
X488442Y254000D02*
X501650Y254000D01*
X501650Y279400D02*
X488442Y279400D01*
D11*
X185191Y329591D02*
X177249Y329591D01*
X185191Y329591D02*
X185191Y320649D01*
X177249Y320649D01*
X177249Y329591D01*
X177249Y324535D02*
X185191Y324535D01*
X185191Y328421D02*
X177249Y328421D01*
X168191Y329591D02*
X160249Y329591D01*
X168191Y329591D02*
X168191Y320649D01*
X160249Y320649D01*
X160249Y329591D01*
X160249Y324535D02*
X168191Y324535D01*
X168191Y328421D02*
X160249Y328421D01*
D12*
X279400Y254000D03*
D13*
X254000Y279400D03*
X254000Y254000D03*
X228600Y279400D03*
X228600Y254000D03*
X203200Y279400D03*
X177800Y254000D03*
X203200Y254000D03*
X177800Y228600D03*
X203200Y228600D03*
X177800Y203200D03*
X203200Y203200D03*
X177800Y177800D03*
X203200Y177800D03*
X177800Y152400D03*
X203200Y152400D03*
X177800Y127000D03*
X203200Y101600D03*
X203200Y127000D03*
X228600Y101600D03*
X228600Y127000D03*
X254000Y101600D03*
X254000Y127000D03*
X279400Y101600D03*
X279400Y127000D03*
X304800Y101600D03*
X304800Y127000D03*
X330200Y101600D03*
X355600Y127000D03*
X330200Y127000D03*
X355600Y152400D03*
X330200Y152400D03*
X355600Y177800D03*
X330200Y177800D03*
X355600Y203200D03*
X330200Y203200D03*
X355600Y228600D03*
X330200Y228600D03*
X355600Y254000D03*
X330200Y279400D03*
X330200Y254000D03*
X304800Y279400D03*
X304800Y254000D03*
X279400Y279400D03*
D14*
X26670Y167640D03*
X52070Y167640D03*
X26670Y142240D03*
X52070Y142240D03*
X26670Y116840D03*
X52070Y116840D03*
D11*
X173829Y38371D02*
X173829Y29429D01*
X173829Y38371D02*
X181771Y38371D01*
X181771Y29429D01*
X173829Y29429D01*
X173829Y33315D02*
X181771Y33315D01*
X181771Y37201D02*
X173829Y37201D01*
X173829Y21371D02*
X173829Y12429D01*
X173829Y21371D02*
X181771Y21371D01*
X181771Y12429D01*
X173829Y12429D01*
X173829Y16315D02*
X181771Y16315D01*
X181771Y20201D02*
X173829Y20201D01*
D15*
X101180Y179000D02*
X95160Y179000D01*
X101180Y179000D02*
X101180Y168980D01*
X95160Y168980D01*
X95160Y179000D01*
X95160Y172792D02*
X101180Y172792D01*
X101180Y176604D02*
X95160Y176604D01*
X85180Y179000D02*
X79160Y179000D01*
X85180Y179000D02*
X85180Y168980D01*
X79160Y168980D01*
X79160Y179000D01*
X79160Y172792D02*
X85180Y172792D01*
X85180Y176604D02*
X79160Y176604D01*
D11*
X77699Y149199D02*
X85641Y149199D01*
X77699Y149199D02*
X77699Y158141D01*
X85641Y158141D01*
X85641Y149199D01*
X85641Y153085D02*
X77699Y153085D01*
X77699Y156971D02*
X85641Y156971D01*
X94699Y149199D02*
X102641Y149199D01*
X94699Y149199D02*
X94699Y158141D01*
X102641Y158141D01*
X102641Y149199D01*
X102641Y153085D02*
X94699Y153085D01*
X94699Y156971D02*
X102641Y156971D01*
D16*
X133673Y116133D02*
X133673Y102247D01*
X117787Y102247D01*
X117787Y116133D01*
X133673Y116133D01*
X133673Y106187D02*
X117787Y106187D01*
X117787Y110127D02*
X133673Y110127D01*
X133673Y114067D02*
X117787Y114067D01*
X133673Y130247D02*
X133673Y144133D01*
X133673Y130247D02*
X117787Y130247D01*
X117787Y144133D01*
X133673Y144133D01*
X133673Y134187D02*
X117787Y134187D01*
X117787Y138127D02*
X133673Y138127D01*
X133673Y142067D02*
X117787Y142067D01*
X119703Y474357D02*
X119703Y488243D01*
X119703Y474357D02*
X103817Y474357D01*
X103817Y488243D01*
X119703Y488243D01*
X119703Y478297D02*
X103817Y478297D01*
X103817Y482237D02*
X119703Y482237D01*
X119703Y486177D02*
X103817Y486177D01*
X119703Y502357D02*
X119703Y516243D01*
X119703Y502357D02*
X103817Y502357D01*
X103817Y516243D01*
X119703Y516243D01*
X119703Y506297D02*
X103817Y506297D01*
X103817Y510237D02*
X119703Y510237D01*
X119703Y514177D02*
X103817Y514177D01*
D11*
X254999Y462119D02*
X263941Y462119D01*
X254999Y462119D02*
X254999Y470061D01*
X263941Y470061D01*
X263941Y462119D01*
X263941Y466005D02*
X254999Y466005D01*
X254999Y469891D02*
X263941Y469891D01*
X271999Y462119D02*
X280941Y462119D01*
X271999Y462119D02*
X271999Y470061D01*
X280941Y470061D01*
X280941Y462119D01*
X280941Y466005D02*
X271999Y466005D01*
X271999Y469891D02*
X280941Y469891D01*
X266481Y321149D02*
X257539Y321149D01*
X257539Y329091D01*
X266481Y329091D01*
X266481Y321149D01*
X266481Y325035D02*
X257539Y325035D01*
X257539Y328921D02*
X266481Y328921D01*
X274539Y321149D02*
X283481Y321149D01*
X274539Y321149D02*
X274539Y329091D01*
X283481Y329091D01*
X283481Y321149D01*
X283481Y325035D02*
X274539Y325035D01*
X274539Y328921D02*
X283481Y328921D01*
X719819Y69689D02*
X728761Y69689D01*
X719819Y69689D02*
X719819Y77631D01*
X728761Y77631D01*
X728761Y69689D01*
X728761Y73575D02*
X719819Y73575D01*
X719819Y77461D02*
X728761Y77461D01*
X736819Y69689D02*
X745761Y69689D01*
X736819Y69689D02*
X736819Y77631D01*
X745761Y77631D01*
X745761Y69689D01*
X745761Y73575D02*
X736819Y73575D01*
X736819Y77461D02*
X745761Y77461D01*
X538261Y69689D02*
X529319Y69689D01*
X529319Y77631D01*
X538261Y77631D01*
X538261Y69689D01*
X538261Y73575D02*
X529319Y73575D01*
X529319Y77461D02*
X538261Y77461D01*
X546319Y69689D02*
X555261Y69689D01*
X546319Y69689D02*
X546319Y77631D01*
X555261Y77631D01*
X555261Y69689D01*
X555261Y73575D02*
X546319Y73575D01*
X546319Y77461D02*
X555261Y77461D01*
X499381Y311311D02*
X490439Y311311D01*
X499381Y311311D02*
X499381Y303369D01*
X490439Y303369D01*
X490439Y311311D01*
X490439Y307255D02*
X499381Y307255D01*
X499381Y311141D02*
X490439Y311141D01*
X482381Y311311D02*
X473439Y311311D01*
X482381Y311311D02*
X482381Y303369D01*
X473439Y303369D01*
X473439Y311311D01*
X473439Y307255D02*
X482381Y307255D01*
X482381Y311141D02*
X473439Y311141D01*
X202981Y321149D02*
X194039Y321149D01*
X194039Y329091D01*
X202981Y329091D01*
X202981Y321149D01*
X202981Y325035D02*
X194039Y325035D01*
X194039Y328921D02*
X202981Y328921D01*
X211039Y321149D02*
X219981Y321149D01*
X211039Y321149D02*
X211039Y329091D01*
X219981Y329091D01*
X219981Y321149D01*
X219981Y325035D02*
X211039Y325035D01*
X211039Y328921D02*
X219981Y328921D01*
X97571Y295749D02*
X88629Y295749D01*
X88629Y303691D01*
X97571Y303691D01*
X97571Y295749D01*
X97571Y299635D02*
X88629Y299635D01*
X88629Y303521D02*
X97571Y303521D01*
X105629Y295749D02*
X114571Y295749D01*
X105629Y295749D02*
X105629Y303691D01*
X114571Y303691D01*
X114571Y295749D01*
X114571Y299635D02*
X105629Y299635D01*
X105629Y303521D02*
X114571Y303521D01*
X85641Y128879D02*
X77699Y128879D01*
X77699Y137821D01*
X85641Y137821D01*
X85641Y128879D01*
X85641Y132765D02*
X77699Y132765D01*
X77699Y136651D02*
X85641Y136651D01*
X94699Y128879D02*
X102641Y128879D01*
X94699Y128879D02*
X94699Y137821D01*
X102641Y137821D01*
X102641Y128879D01*
X102641Y132765D02*
X94699Y132765D01*
X94699Y136651D02*
X102641Y136651D01*
D17*
X216304Y29654D02*
X226296Y29654D01*
X216304Y29654D02*
X216304Y38646D01*
X226296Y38646D01*
X226296Y29654D01*
X226296Y33492D02*
X216304Y33492D01*
X216304Y37330D02*
X226296Y37330D01*
X202796Y38646D02*
X192804Y38646D01*
X202796Y38646D02*
X202796Y29654D01*
X192804Y29654D01*
X192804Y38646D01*
X192804Y33492D02*
X202796Y33492D01*
X202796Y37330D02*
X192804Y37330D01*
X192804Y21146D02*
X202796Y21146D01*
X202796Y12154D01*
X192804Y12154D01*
X192804Y21146D01*
X192804Y15992D02*
X202796Y15992D01*
X202796Y19830D02*
X192804Y19830D01*
X216304Y12154D02*
X226296Y12154D01*
X216304Y12154D02*
X216304Y21146D01*
X226296Y21146D01*
X226296Y12154D01*
X226296Y15992D02*
X216304Y15992D01*
X216304Y19830D02*
X226296Y19830D01*
D11*
X235611Y453619D02*
X235611Y461561D01*
X235611Y453619D02*
X226669Y453619D01*
X226669Y461561D01*
X235611Y461561D01*
X235611Y457505D02*
X226669Y457505D01*
X226669Y461391D02*
X235611Y461391D01*
X235611Y470619D02*
X235611Y478561D01*
X235611Y470619D02*
X226669Y470619D01*
X226669Y478561D01*
X235611Y478561D01*
X235611Y474505D02*
X226669Y474505D01*
X226669Y478391D02*
X235611Y478391D01*
D18*
X21390Y509590D02*
X21390Y516570D01*
X21390Y509590D02*
X14410Y509590D01*
X14410Y516570D01*
X21390Y516570D01*
X21390Y514390D02*
X14410Y514390D01*
X38930Y516570D02*
X38930Y509590D01*
X31950Y509590D01*
X31950Y516570D01*
X38930Y516570D01*
X38930Y514390D02*
X31950Y514390D01*
X269560Y30680D02*
X276540Y30680D01*
X269560Y30680D02*
X269560Y37660D01*
X276540Y37660D01*
X276540Y30680D01*
X276540Y35480D02*
X269560Y35480D01*
X269560Y13140D02*
X276540Y13140D01*
X269560Y13140D02*
X269560Y20120D01*
X276540Y20120D01*
X276540Y13140D01*
X276540Y17940D02*
X269560Y17940D01*
D11*
X56431Y508609D02*
X48489Y508609D01*
X48489Y517551D01*
X56431Y517551D01*
X56431Y508609D01*
X56431Y512495D02*
X48489Y512495D01*
X48489Y516381D02*
X56431Y516381D01*
X65489Y508609D02*
X73431Y508609D01*
X65489Y508609D02*
X65489Y517551D01*
X73431Y517551D01*
X73431Y508609D01*
X73431Y512495D02*
X65489Y512495D01*
X65489Y516381D02*
X73431Y516381D01*
X296571Y20871D02*
X296571Y12929D01*
X287629Y12929D01*
X287629Y20871D01*
X296571Y20871D01*
X296571Y16815D02*
X287629Y16815D01*
X287629Y20701D02*
X296571Y20701D01*
X296571Y29929D02*
X296571Y37871D01*
X296571Y29929D02*
X287629Y29929D01*
X287629Y37871D01*
X296571Y37871D01*
X296571Y33815D02*
X287629Y33815D01*
X287629Y37701D02*
X296571Y37701D01*
X236829Y37871D02*
X236829Y29929D01*
X236829Y37871D02*
X245771Y37871D01*
X245771Y29929D01*
X236829Y29929D01*
X236829Y33815D02*
X245771Y33815D01*
X245771Y37701D02*
X236829Y37701D01*
X236829Y20871D02*
X236829Y12929D01*
X236829Y20871D02*
X245771Y20871D01*
X245771Y12929D01*
X236829Y12929D01*
X236829Y16815D02*
X245771Y16815D01*
X245771Y20701D02*
X236829Y20701D01*
D19*
X85200Y368500D03*
X85200Y393500D03*
X65200Y393500D03*
X65200Y368500D03*
D20*
X38100Y441200D03*
X38100Y320800D03*
D11*
X135729Y470119D02*
X135729Y479061D01*
X143671Y479061D01*
X143671Y470119D01*
X135729Y470119D01*
X135729Y474005D02*
X143671Y474005D01*
X143671Y477891D02*
X135729Y477891D01*
X135729Y462061D02*
X135729Y453119D01*
X135729Y462061D02*
X143671Y462061D01*
X143671Y453119D01*
X135729Y453119D01*
X135729Y457005D02*
X143671Y457005D01*
X143671Y460891D02*
X135729Y460891D01*
X107789Y358411D02*
X107789Y349469D01*
X107789Y358411D02*
X115731Y358411D01*
X115731Y349469D01*
X107789Y349469D01*
X107789Y353355D02*
X115731Y353355D01*
X115731Y357241D02*
X107789Y357241D01*
X107789Y341411D02*
X107789Y332469D01*
X107789Y341411D02*
X115731Y341411D01*
X115731Y332469D01*
X107789Y332469D01*
X107789Y336355D02*
X115731Y336355D01*
X115731Y340241D02*
X107789Y340241D01*
X79011Y303691D02*
X70069Y303691D01*
X79011Y303691D02*
X79011Y295749D01*
X70069Y295749D01*
X70069Y303691D01*
X70069Y299635D02*
X79011Y299635D01*
X79011Y303521D02*
X70069Y303521D01*
X62011Y303691D02*
X53069Y303691D01*
X62011Y303691D02*
X62011Y295749D01*
X53069Y295749D01*
X53069Y303691D01*
X53069Y299635D02*
X62011Y299635D01*
X62011Y303521D02*
X53069Y303521D01*
X115731Y364219D02*
X115731Y373161D01*
X115731Y364219D02*
X107789Y364219D01*
X107789Y373161D01*
X115731Y373161D01*
X115731Y368105D02*
X107789Y368105D01*
X107789Y371991D02*
X115731Y371991D01*
X115731Y381219D02*
X115731Y390161D01*
X115731Y381219D02*
X107789Y381219D01*
X107789Y390161D01*
X115731Y390161D01*
X115731Y385105D02*
X107789Y385105D01*
X107789Y388991D02*
X115731Y388991D01*
D21*
X23516Y198554D02*
X21524Y198554D01*
X21524Y211546D01*
X23516Y211546D01*
X23516Y198554D01*
X23516Y202393D02*
X21524Y202393D01*
X21524Y206232D02*
X23516Y206232D01*
X23516Y210071D02*
X21524Y210071D01*
X28024Y198554D02*
X30016Y198554D01*
X28024Y198554D02*
X28024Y211546D01*
X30016Y211546D01*
X30016Y198554D01*
X30016Y202393D02*
X28024Y202393D01*
X28024Y206232D02*
X30016Y206232D01*
X30016Y210071D02*
X28024Y210071D01*
X34524Y198554D02*
X36516Y198554D01*
X34524Y198554D02*
X34524Y211546D01*
X36516Y211546D01*
X36516Y198554D01*
X36516Y202393D02*
X34524Y202393D01*
X34524Y206232D02*
X36516Y206232D01*
X36516Y210071D02*
X34524Y210071D01*
X41024Y198554D02*
X43016Y198554D01*
X41024Y198554D02*
X41024Y211546D01*
X43016Y211546D01*
X43016Y198554D01*
X43016Y202393D02*
X41024Y202393D01*
X41024Y206232D02*
X43016Y206232D01*
X43016Y210071D02*
X41024Y210071D01*
X47524Y198554D02*
X49516Y198554D01*
X47524Y198554D02*
X47524Y211546D01*
X49516Y211546D01*
X49516Y198554D01*
X49516Y202393D02*
X47524Y202393D01*
X47524Y206232D02*
X49516Y206232D01*
X49516Y210071D02*
X47524Y210071D01*
X54024Y198554D02*
X56016Y198554D01*
X54024Y198554D02*
X54024Y211546D01*
X56016Y211546D01*
X56016Y198554D01*
X56016Y202393D02*
X54024Y202393D01*
X54024Y206232D02*
X56016Y206232D01*
X56016Y210071D02*
X54024Y210071D01*
X60524Y198554D02*
X62516Y198554D01*
X60524Y198554D02*
X60524Y211546D01*
X62516Y211546D01*
X62516Y198554D01*
X62516Y202393D02*
X60524Y202393D01*
X60524Y206232D02*
X62516Y206232D01*
X62516Y210071D02*
X60524Y210071D01*
X67024Y198554D02*
X69016Y198554D01*
X67024Y198554D02*
X67024Y211546D01*
X69016Y211546D01*
X69016Y198554D01*
X69016Y202393D02*
X67024Y202393D01*
X67024Y206232D02*
X69016Y206232D01*
X69016Y210071D02*
X67024Y210071D01*
X73524Y198554D02*
X75516Y198554D01*
X73524Y198554D02*
X73524Y211546D01*
X75516Y211546D01*
X75516Y198554D01*
X75516Y202393D02*
X73524Y202393D01*
X73524Y206232D02*
X75516Y206232D01*
X75516Y210071D02*
X73524Y210071D01*
X80024Y198554D02*
X82016Y198554D01*
X80024Y198554D02*
X80024Y211546D01*
X82016Y211546D01*
X82016Y198554D01*
X82016Y202393D02*
X80024Y202393D01*
X80024Y206232D02*
X82016Y206232D01*
X82016Y210071D02*
X80024Y210071D01*
X86524Y198554D02*
X88516Y198554D01*
X86524Y198554D02*
X86524Y211546D01*
X88516Y211546D01*
X88516Y198554D01*
X88516Y202393D02*
X86524Y202393D01*
X86524Y206232D02*
X88516Y206232D01*
X88516Y210071D02*
X86524Y210071D01*
X93024Y198554D02*
X95016Y198554D01*
X93024Y198554D02*
X93024Y211546D01*
X95016Y211546D01*
X95016Y198554D01*
X95016Y202393D02*
X93024Y202393D01*
X93024Y206232D02*
X95016Y206232D01*
X95016Y210071D02*
X93024Y210071D01*
X99524Y198554D02*
X101516Y198554D01*
X99524Y198554D02*
X99524Y211546D01*
X101516Y211546D01*
X101516Y198554D01*
X101516Y202393D02*
X99524Y202393D01*
X99524Y206232D02*
X101516Y206232D01*
X101516Y210071D02*
X99524Y210071D01*
X106024Y198554D02*
X108016Y198554D01*
X106024Y198554D02*
X106024Y211546D01*
X108016Y211546D01*
X108016Y198554D01*
X108016Y202393D02*
X106024Y202393D01*
X106024Y206232D02*
X108016Y206232D01*
X108016Y210071D02*
X106024Y210071D01*
X106024Y271054D02*
X108016Y271054D01*
X106024Y271054D02*
X106024Y284046D01*
X108016Y284046D01*
X108016Y271054D01*
X108016Y274893D02*
X106024Y274893D01*
X106024Y278732D02*
X108016Y278732D01*
X108016Y282571D02*
X106024Y282571D01*
X101516Y271054D02*
X99524Y271054D01*
X99524Y284046D01*
X101516Y284046D01*
X101516Y271054D01*
X101516Y274893D02*
X99524Y274893D01*
X99524Y278732D02*
X101516Y278732D01*
X101516Y282571D02*
X99524Y282571D01*
X95016Y271054D02*
X93024Y271054D01*
X93024Y284046D01*
X95016Y284046D01*
X95016Y271054D01*
X95016Y274893D02*
X93024Y274893D01*
X93024Y278732D02*
X95016Y278732D01*
X95016Y282571D02*
X93024Y282571D01*
X88516Y271054D02*
X86524Y271054D01*
X86524Y284046D01*
X88516Y284046D01*
X88516Y271054D01*
X88516Y274893D02*
X86524Y274893D01*
X86524Y278732D02*
X88516Y278732D01*
X88516Y282571D02*
X86524Y282571D01*
X82016Y271054D02*
X80024Y271054D01*
X80024Y284046D01*
X82016Y284046D01*
X82016Y271054D01*
X82016Y274893D02*
X80024Y274893D01*
X80024Y278732D02*
X82016Y278732D01*
X82016Y282571D02*
X80024Y282571D01*
X75516Y271054D02*
X73524Y271054D01*
X73524Y284046D01*
X75516Y284046D01*
X75516Y271054D01*
X75516Y274893D02*
X73524Y274893D01*
X73524Y278732D02*
X75516Y278732D01*
X75516Y282571D02*
X73524Y282571D01*
X69016Y271054D02*
X67024Y271054D01*
X67024Y284046D01*
X69016Y284046D01*
X69016Y271054D01*
X69016Y274893D02*
X67024Y274893D01*
X67024Y278732D02*
X69016Y278732D01*
X69016Y282571D02*
X67024Y282571D01*
X62516Y271054D02*
X60524Y271054D01*
X60524Y284046D01*
X62516Y284046D01*
X62516Y271054D01*
X62516Y274893D02*
X60524Y274893D01*
X60524Y278732D02*
X62516Y278732D01*
X62516Y282571D02*
X60524Y282571D01*
X56016Y271054D02*
X54024Y271054D01*
X54024Y284046D01*
X56016Y284046D01*
X56016Y271054D01*
X56016Y274893D02*
X54024Y274893D01*
X54024Y278732D02*
X56016Y278732D01*
X56016Y282571D02*
X54024Y282571D01*
X49516Y271054D02*
X47524Y271054D01*
X47524Y284046D01*
X49516Y284046D01*
X49516Y271054D01*
X49516Y274893D02*
X47524Y274893D01*
X47524Y278732D02*
X49516Y278732D01*
X49516Y282571D02*
X47524Y282571D01*
X43016Y271054D02*
X41024Y271054D01*
X41024Y284046D01*
X43016Y284046D01*
X43016Y271054D01*
X43016Y274893D02*
X41024Y274893D01*
X41024Y278732D02*
X43016Y278732D01*
X43016Y282571D02*
X41024Y282571D01*
X36516Y271054D02*
X34524Y271054D01*
X34524Y284046D01*
X36516Y284046D01*
X36516Y271054D01*
X36516Y274893D02*
X34524Y274893D01*
X34524Y278732D02*
X36516Y278732D01*
X36516Y282571D02*
X34524Y282571D01*
X30016Y271054D02*
X28024Y271054D01*
X28024Y284046D01*
X30016Y284046D01*
X30016Y271054D01*
X30016Y274893D02*
X28024Y274893D01*
X28024Y278732D02*
X30016Y278732D01*
X30016Y282571D02*
X28024Y282571D01*
X23516Y271054D02*
X21524Y271054D01*
X21524Y284046D01*
X23516Y284046D01*
X23516Y271054D01*
X23516Y274893D02*
X21524Y274893D01*
X21524Y278732D02*
X23516Y278732D01*
X23516Y282571D02*
X21524Y282571D01*
D11*
X194361Y462119D02*
X194361Y470061D01*
X194361Y462119D02*
X182419Y462119D01*
X182419Y470061D01*
X194361Y470061D01*
X194361Y466005D02*
X182419Y466005D01*
X182419Y469891D02*
X194361Y469891D01*
X216361Y471619D02*
X216361Y479561D01*
X216361Y471619D02*
X204419Y471619D01*
X204419Y479561D01*
X216361Y479561D01*
X216361Y475505D02*
X204419Y475505D01*
X204419Y479391D02*
X216361Y479391D01*
X216361Y460561D02*
X216361Y452619D01*
X204419Y452619D01*
X204419Y460561D01*
X216361Y460561D01*
X216361Y456505D02*
X204419Y456505D01*
X204419Y460391D02*
X216361Y460391D01*
X160629Y470619D02*
X160629Y478561D01*
X169571Y478561D01*
X169571Y470619D01*
X160629Y470619D01*
X160629Y474505D02*
X169571Y474505D01*
X169571Y478391D02*
X160629Y478391D01*
X160629Y461561D02*
X160629Y453619D01*
X160629Y461561D02*
X169571Y461561D01*
X169571Y453619D01*
X160629Y453619D01*
X160629Y457505D02*
X169571Y457505D01*
X169571Y461391D02*
X160629Y461391D01*
X136551Y249471D02*
X136551Y241529D01*
X127609Y241529D01*
X127609Y249471D01*
X136551Y249471D01*
X136551Y245415D02*
X127609Y245415D01*
X127609Y249301D02*
X136551Y249301D01*
X136551Y258529D02*
X136551Y266471D01*
X136551Y258529D02*
X127609Y258529D01*
X127609Y266471D01*
X136551Y266471D01*
X136551Y262415D02*
X127609Y262415D01*
X127609Y266301D02*
X136551Y266301D01*
X136551Y218991D02*
X136551Y211049D01*
X127609Y211049D01*
X127609Y218991D01*
X136551Y218991D01*
X136551Y214935D02*
X127609Y214935D01*
X127609Y218821D02*
X136551Y218821D01*
X136551Y228049D02*
X136551Y235991D01*
X136551Y228049D02*
X127609Y228049D01*
X127609Y235991D01*
X136551Y235991D01*
X136551Y231935D02*
X127609Y231935D01*
X127609Y235821D02*
X136551Y235821D01*
D22*
X84324Y492394D02*
X62196Y492394D01*
X84324Y492394D02*
X84324Y470266D01*
X62196Y470266D01*
X62196Y492394D01*
X62196Y473976D02*
X84324Y473976D01*
X84324Y477686D02*
X62196Y477686D01*
X62196Y481396D02*
X84324Y481396D01*
X84324Y485106D02*
X62196Y485106D01*
X62196Y488816D02*
X84324Y488816D01*
X34324Y470266D02*
X12196Y470266D01*
X12196Y492394D01*
X34324Y492394D01*
X34324Y470266D01*
X34324Y473976D02*
X12196Y473976D01*
X12196Y477686D02*
X34324Y477686D01*
X34324Y481396D02*
X12196Y481396D01*
X12196Y485106D02*
X34324Y485106D01*
X34324Y488816D02*
X12196Y488816D01*
D23*
X105748Y449192D02*
X105748Y437168D01*
X105748Y449192D02*
X117772Y449192D01*
X117772Y437168D01*
X105748Y437168D01*
X105748Y440976D02*
X117772Y440976D01*
X117772Y444784D02*
X105748Y444784D01*
X105748Y448592D02*
X117772Y448592D01*
X105748Y411192D02*
X105748Y399168D01*
X105748Y411192D02*
X117772Y411192D01*
X117772Y399168D01*
X105748Y399168D01*
X105748Y402976D02*
X117772Y402976D01*
X117772Y406784D02*
X105748Y406784D01*
X105748Y410592D02*
X117772Y410592D01*
D16*
X32427Y32283D02*
X32427Y11397D01*
X32427Y32283D02*
X46313Y32283D01*
X46313Y11397D01*
X32427Y11397D01*
X32427Y15337D02*
X46313Y15337D01*
X46313Y19277D02*
X32427Y19277D01*
X32427Y23217D02*
X46313Y23217D01*
X46313Y27157D02*
X32427Y27157D01*
X32427Y31097D02*
X46313Y31097D01*
X32427Y74397D02*
X32427Y95283D01*
X46313Y95283D01*
X46313Y74397D01*
X32427Y74397D01*
X32427Y78337D02*
X46313Y78337D01*
X46313Y82277D02*
X32427Y82277D01*
X32427Y86217D02*
X46313Y86217D01*
X46313Y90157D02*
X32427Y90157D01*
X32427Y94097D02*
X46313Y94097D01*
X83227Y32283D02*
X83227Y11397D01*
X83227Y32283D02*
X97113Y32283D01*
X97113Y11397D01*
X83227Y11397D01*
X83227Y15337D02*
X97113Y15337D01*
X97113Y19277D02*
X83227Y19277D01*
X83227Y23217D02*
X97113Y23217D01*
X97113Y27157D02*
X83227Y27157D01*
X83227Y31097D02*
X97113Y31097D01*
X83227Y74397D02*
X83227Y95283D01*
X97113Y95283D01*
X97113Y74397D01*
X83227Y74397D01*
X83227Y78337D02*
X97113Y78337D01*
X97113Y82277D02*
X83227Y82277D01*
X83227Y86217D02*
X97113Y86217D01*
X97113Y90157D02*
X83227Y90157D01*
X83227Y94097D02*
X97113Y94097D01*
D11*
X85641Y108559D02*
X77699Y108559D01*
X77699Y117501D01*
X85641Y117501D01*
X85641Y108559D01*
X85641Y112445D02*
X77699Y112445D01*
X77699Y116331D02*
X85641Y116331D01*
X94699Y108559D02*
X102641Y108559D01*
X94699Y108559D02*
X94699Y117501D01*
X102641Y117501D01*
X102641Y108559D01*
X102641Y112445D02*
X94699Y112445D01*
X94699Y116331D02*
X102641Y116331D01*
D14*
X762000Y25400D03*
X787400Y25400D03*
X812800Y25400D03*
X838200Y25400D03*
X863600Y25400D03*
X889000Y25400D03*
X914400Y25400D03*
X736600Y25400D03*
X711200Y508000D03*
X736600Y508000D03*
X762000Y508000D03*
X787400Y508000D03*
X812800Y508000D03*
X838200Y508000D03*
X863600Y508000D03*
X685800Y508000D03*
X533400Y25400D03*
X558800Y25400D03*
X584200Y25400D03*
X609600Y25400D03*
X635000Y25400D03*
X660400Y25400D03*
X685800Y25400D03*
X508000Y25400D03*
X482600Y508000D03*
X508000Y508000D03*
X533400Y508000D03*
X558800Y508000D03*
X584200Y508000D03*
X609600Y508000D03*
X635000Y508000D03*
X457200Y508000D03*
X264160Y508000D03*
X289560Y508000D03*
X314960Y508000D03*
X340360Y508000D03*
X365760Y508000D03*
X391160Y508000D03*
X416560Y508000D03*
X238760Y508000D03*
D24*
X965200Y304800D03*
X939800Y304800D03*
X965200Y330200D03*
X939800Y330200D03*
X965200Y355600D03*
X939800Y355600D03*
X965200Y381000D03*
X939800Y381000D03*
X965200Y406400D03*
X939800Y406400D03*
X965200Y431800D03*
X939800Y431800D03*
X965200Y457200D03*
X939800Y457200D03*
X965200Y482600D03*
X939800Y482600D03*
X965200Y101600D03*
X939800Y101600D03*
X965200Y127000D03*
X939800Y127000D03*
X965200Y152400D03*
X939800Y152400D03*
X965200Y177800D03*
X939800Y177800D03*
X965200Y203200D03*
X939800Y203200D03*
X965200Y228600D03*
X939800Y228600D03*
X965200Y254000D03*
X939800Y254000D03*
X965200Y279400D03*
X939800Y279400D03*
D14*
X939800Y76200D03*
X965200Y76200D03*
X939800Y508000D03*
X965200Y508000D03*
X330200Y25400D03*
X355600Y25400D03*
X381000Y25400D03*
X406400Y25400D03*
X431800Y25400D03*
X457200Y25400D03*
D25*
X152400Y508000D03*
X139700Y25400D03*
X901700Y508000D03*
X965200Y25400D03*
D26*
X81280Y520700D02*
X81282Y520887D01*
X81289Y521074D01*
X81301Y521261D01*
X81317Y521447D01*
X81337Y521633D01*
X81362Y521818D01*
X81392Y522003D01*
X81426Y522187D01*
X81465Y522370D01*
X81508Y522552D01*
X81556Y522732D01*
X81608Y522912D01*
X81665Y523090D01*
X81725Y523267D01*
X81791Y523442D01*
X81860Y523616D01*
X81934Y523788D01*
X82012Y523958D01*
X82094Y524126D01*
X82180Y524292D01*
X82270Y524456D01*
X82364Y524617D01*
X82462Y524777D01*
X82564Y524933D01*
X82670Y525088D01*
X82780Y525239D01*
X82893Y525388D01*
X83010Y525534D01*
X83130Y525677D01*
X83254Y525817D01*
X83381Y525954D01*
X83512Y526088D01*
X83646Y526219D01*
X83783Y526346D01*
X83923Y526470D01*
X84066Y526590D01*
X84212Y526707D01*
X84361Y526820D01*
X84512Y526930D01*
X84667Y527036D01*
X84823Y527138D01*
X84983Y527236D01*
X85144Y527330D01*
X85308Y527420D01*
X85474Y527506D01*
X85642Y527588D01*
X85812Y527666D01*
X85984Y527740D01*
X86158Y527809D01*
X86333Y527875D01*
X86510Y527935D01*
X86688Y527992D01*
X86868Y528044D01*
X87048Y528092D01*
X87230Y528135D01*
X87413Y528174D01*
X87597Y528208D01*
X87782Y528238D01*
X87967Y528263D01*
X88153Y528283D01*
X88339Y528299D01*
X88526Y528311D01*
X88713Y528318D01*
X88900Y528320D01*
X89087Y528318D01*
X89274Y528311D01*
X89461Y528299D01*
X89647Y528283D01*
X89833Y528263D01*
X90018Y528238D01*
X90203Y528208D01*
X90387Y528174D01*
X90570Y528135D01*
X90752Y528092D01*
X90932Y528044D01*
X91112Y527992D01*
X91290Y527935D01*
X91467Y527875D01*
X91642Y527809D01*
X91816Y527740D01*
X91988Y527666D01*
X92158Y527588D01*
X92326Y527506D01*
X92492Y527420D01*
X92656Y527330D01*
X92817Y527236D01*
X92977Y527138D01*
X93133Y527036D01*
X93288Y526930D01*
X93439Y526820D01*
X93588Y526707D01*
X93734Y526590D01*
X93877Y526470D01*
X94017Y526346D01*
X94154Y526219D01*
X94288Y526088D01*
X94419Y525954D01*
X94546Y525817D01*
X94670Y525677D01*
X94790Y525534D01*
X94907Y525388D01*
X95020Y525239D01*
X95130Y525088D01*
X95236Y524933D01*
X95338Y524777D01*
X95436Y524617D01*
X95530Y524456D01*
X95620Y524292D01*
X95706Y524126D01*
X95788Y523958D01*
X95866Y523788D01*
X95940Y523616D01*
X96009Y523442D01*
X96075Y523267D01*
X96135Y523090D01*
X96192Y522912D01*
X96244Y522732D01*
X96292Y522552D01*
X96335Y522370D01*
X96374Y522187D01*
X96408Y522003D01*
X96438Y521818D01*
X96463Y521633D01*
X96483Y521447D01*
X96499Y521261D01*
X96511Y521074D01*
X96518Y520887D01*
X96520Y520700D01*
X96518Y520513D01*
X96511Y520326D01*
X96499Y520139D01*
X96483Y519953D01*
X96463Y519767D01*
X96438Y519582D01*
X96408Y519397D01*
X96374Y519213D01*
X96335Y519030D01*
X96292Y518848D01*
X96244Y518668D01*
X96192Y518488D01*
X96135Y518310D01*
X96075Y518133D01*
X96009Y517958D01*
X95940Y517784D01*
X95866Y517612D01*
X95788Y517442D01*
X95706Y517274D01*
X95620Y517108D01*
X95530Y516944D01*
X95436Y516783D01*
X95338Y516623D01*
X95236Y516467D01*
X95130Y516312D01*
X95020Y516161D01*
X94907Y516012D01*
X94790Y515866D01*
X94670Y515723D01*
X94546Y515583D01*
X94419Y515446D01*
X94288Y515312D01*
X94154Y515181D01*
X94017Y515054D01*
X93877Y514930D01*
X93734Y514810D01*
X93588Y514693D01*
X93439Y514580D01*
X93288Y514470D01*
X93133Y514364D01*
X92977Y514262D01*
X92817Y514164D01*
X92656Y514070D01*
X92492Y513980D01*
X92326Y513894D01*
X92158Y513812D01*
X91988Y513734D01*
X91816Y513660D01*
X91642Y513591D01*
X91467Y513525D01*
X91290Y513465D01*
X91112Y513408D01*
X90932Y513356D01*
X90752Y513308D01*
X90570Y513265D01*
X90387Y513226D01*
X90203Y513192D01*
X90018Y513162D01*
X89833Y513137D01*
X89647Y513117D01*
X89461Y513101D01*
X89274Y513089D01*
X89087Y513082D01*
X88900Y513080D01*
X88713Y513082D01*
X88526Y513089D01*
X88339Y513101D01*
X88153Y513117D01*
X87967Y513137D01*
X87782Y513162D01*
X87597Y513192D01*
X87413Y513226D01*
X87230Y513265D01*
X87048Y513308D01*
X86868Y513356D01*
X86688Y513408D01*
X86510Y513465D01*
X86333Y513525D01*
X86158Y513591D01*
X85984Y513660D01*
X85812Y513734D01*
X85642Y513812D01*
X85474Y513894D01*
X85308Y513980D01*
X85144Y514070D01*
X84983Y514164D01*
X84823Y514262D01*
X84667Y514364D01*
X84512Y514470D01*
X84361Y514580D01*
X84212Y514693D01*
X84066Y514810D01*
X83923Y514930D01*
X83783Y515054D01*
X83646Y515181D01*
X83512Y515312D01*
X83381Y515446D01*
X83254Y515583D01*
X83130Y515723D01*
X83010Y515866D01*
X82893Y516012D01*
X82780Y516161D01*
X82670Y516312D01*
X82564Y516467D01*
X82462Y516623D01*
X82364Y516783D01*
X82270Y516944D01*
X82180Y517108D01*
X82094Y517274D01*
X82012Y517442D01*
X81934Y517612D01*
X81860Y517784D01*
X81791Y517958D01*
X81725Y518133D01*
X81665Y518310D01*
X81608Y518488D01*
X81556Y518668D01*
X81508Y518848D01*
X81465Y519030D01*
X81426Y519213D01*
X81392Y519397D01*
X81362Y519582D01*
X81337Y519767D01*
X81317Y519953D01*
X81301Y520139D01*
X81289Y520326D01*
X81282Y520513D01*
X81280Y520700D01*
D27*
X88900Y520700D03*
D26*
X916940Y521970D02*
X916942Y522157D01*
X916949Y522344D01*
X916961Y522531D01*
X916977Y522717D01*
X916997Y522903D01*
X917022Y523088D01*
X917052Y523273D01*
X917086Y523457D01*
X917125Y523640D01*
X917168Y523822D01*
X917216Y524002D01*
X917268Y524182D01*
X917325Y524360D01*
X917385Y524537D01*
X917451Y524712D01*
X917520Y524886D01*
X917594Y525058D01*
X917672Y525228D01*
X917754Y525396D01*
X917840Y525562D01*
X917930Y525726D01*
X918024Y525887D01*
X918122Y526047D01*
X918224Y526203D01*
X918330Y526358D01*
X918440Y526509D01*
X918553Y526658D01*
X918670Y526804D01*
X918790Y526947D01*
X918914Y527087D01*
X919041Y527224D01*
X919172Y527358D01*
X919306Y527489D01*
X919443Y527616D01*
X919583Y527740D01*
X919726Y527860D01*
X919872Y527977D01*
X920021Y528090D01*
X920172Y528200D01*
X920327Y528306D01*
X920483Y528408D01*
X920643Y528506D01*
X920804Y528600D01*
X920968Y528690D01*
X921134Y528776D01*
X921302Y528858D01*
X921472Y528936D01*
X921644Y529010D01*
X921818Y529079D01*
X921993Y529145D01*
X922170Y529205D01*
X922348Y529262D01*
X922528Y529314D01*
X922708Y529362D01*
X922890Y529405D01*
X923073Y529444D01*
X923257Y529478D01*
X923442Y529508D01*
X923627Y529533D01*
X923813Y529553D01*
X923999Y529569D01*
X924186Y529581D01*
X924373Y529588D01*
X924560Y529590D01*
X924747Y529588D01*
X924934Y529581D01*
X925121Y529569D01*
X925307Y529553D01*
X925493Y529533D01*
X925678Y529508D01*
X925863Y529478D01*
X926047Y529444D01*
X926230Y529405D01*
X926412Y529362D01*
X926592Y529314D01*
X926772Y529262D01*
X926950Y529205D01*
X927127Y529145D01*
X927302Y529079D01*
X927476Y529010D01*
X927648Y528936D01*
X927818Y528858D01*
X927986Y528776D01*
X928152Y528690D01*
X928316Y528600D01*
X928477Y528506D01*
X928637Y528408D01*
X928793Y528306D01*
X928948Y528200D01*
X929099Y528090D01*
X929248Y527977D01*
X929394Y527860D01*
X929537Y527740D01*
X929677Y527616D01*
X929814Y527489D01*
X929948Y527358D01*
X930079Y527224D01*
X930206Y527087D01*
X930330Y526947D01*
X930450Y526804D01*
X930567Y526658D01*
X930680Y526509D01*
X930790Y526358D01*
X930896Y526203D01*
X930998Y526047D01*
X931096Y525887D01*
X931190Y525726D01*
X931280Y525562D01*
X931366Y525396D01*
X931448Y525228D01*
X931526Y525058D01*
X931600Y524886D01*
X931669Y524712D01*
X931735Y524537D01*
X931795Y524360D01*
X931852Y524182D01*
X931904Y524002D01*
X931952Y523822D01*
X931995Y523640D01*
X932034Y523457D01*
X932068Y523273D01*
X932098Y523088D01*
X932123Y522903D01*
X932143Y522717D01*
X932159Y522531D01*
X932171Y522344D01*
X932178Y522157D01*
X932180Y521970D01*
X932178Y521783D01*
X932171Y521596D01*
X932159Y521409D01*
X932143Y521223D01*
X932123Y521037D01*
X932098Y520852D01*
X932068Y520667D01*
X932034Y520483D01*
X931995Y520300D01*
X931952Y520118D01*
X931904Y519938D01*
X931852Y519758D01*
X931795Y519580D01*
X931735Y519403D01*
X931669Y519228D01*
X931600Y519054D01*
X931526Y518882D01*
X931448Y518712D01*
X931366Y518544D01*
X931280Y518378D01*
X931190Y518214D01*
X931096Y518053D01*
X930998Y517893D01*
X930896Y517737D01*
X930790Y517582D01*
X930680Y517431D01*
X930567Y517282D01*
X930450Y517136D01*
X930330Y516993D01*
X930206Y516853D01*
X930079Y516716D01*
X929948Y516582D01*
X929814Y516451D01*
X929677Y516324D01*
X929537Y516200D01*
X929394Y516080D01*
X929248Y515963D01*
X929099Y515850D01*
X928948Y515740D01*
X928793Y515634D01*
X928637Y515532D01*
X928477Y515434D01*
X928316Y515340D01*
X928152Y515250D01*
X927986Y515164D01*
X927818Y515082D01*
X927648Y515004D01*
X927476Y514930D01*
X927302Y514861D01*
X927127Y514795D01*
X926950Y514735D01*
X926772Y514678D01*
X926592Y514626D01*
X926412Y514578D01*
X926230Y514535D01*
X926047Y514496D01*
X925863Y514462D01*
X925678Y514432D01*
X925493Y514407D01*
X925307Y514387D01*
X925121Y514371D01*
X924934Y514359D01*
X924747Y514352D01*
X924560Y514350D01*
X924373Y514352D01*
X924186Y514359D01*
X923999Y514371D01*
X923813Y514387D01*
X923627Y514407D01*
X923442Y514432D01*
X923257Y514462D01*
X923073Y514496D01*
X922890Y514535D01*
X922708Y514578D01*
X922528Y514626D01*
X922348Y514678D01*
X922170Y514735D01*
X921993Y514795D01*
X921818Y514861D01*
X921644Y514930D01*
X921472Y515004D01*
X921302Y515082D01*
X921134Y515164D01*
X920968Y515250D01*
X920804Y515340D01*
X920643Y515434D01*
X920483Y515532D01*
X920327Y515634D01*
X920172Y515740D01*
X920021Y515850D01*
X919872Y515963D01*
X919726Y516080D01*
X919583Y516200D01*
X919443Y516324D01*
X919306Y516451D01*
X919172Y516582D01*
X919041Y516716D01*
X918914Y516853D01*
X918790Y516993D01*
X918670Y517136D01*
X918553Y517282D01*
X918440Y517431D01*
X918330Y517582D01*
X918224Y517737D01*
X918122Y517893D01*
X918024Y518053D01*
X917930Y518214D01*
X917840Y518378D01*
X917754Y518544D01*
X917672Y518712D01*
X917594Y518882D01*
X917520Y519054D01*
X917451Y519228D01*
X917385Y519403D01*
X917325Y519580D01*
X917268Y519758D01*
X917216Y519938D01*
X917168Y520118D01*
X917125Y520300D01*
X917086Y520483D01*
X917052Y520667D01*
X917022Y520852D01*
X916997Y521037D01*
X916977Y521223D01*
X916961Y521409D01*
X916949Y521596D01*
X916942Y521783D01*
X916940Y521970D01*
D27*
X924560Y521970D03*
D26*
X5080Y12700D02*
X5082Y12887D01*
X5089Y13074D01*
X5101Y13261D01*
X5117Y13447D01*
X5137Y13633D01*
X5162Y13818D01*
X5192Y14003D01*
X5226Y14187D01*
X5265Y14370D01*
X5308Y14552D01*
X5356Y14732D01*
X5408Y14912D01*
X5465Y15090D01*
X5525Y15267D01*
X5591Y15442D01*
X5660Y15616D01*
X5734Y15788D01*
X5812Y15958D01*
X5894Y16126D01*
X5980Y16292D01*
X6070Y16456D01*
X6164Y16617D01*
X6262Y16777D01*
X6364Y16933D01*
X6470Y17088D01*
X6580Y17239D01*
X6693Y17388D01*
X6810Y17534D01*
X6930Y17677D01*
X7054Y17817D01*
X7181Y17954D01*
X7312Y18088D01*
X7446Y18219D01*
X7583Y18346D01*
X7723Y18470D01*
X7866Y18590D01*
X8012Y18707D01*
X8161Y18820D01*
X8312Y18930D01*
X8467Y19036D01*
X8623Y19138D01*
X8783Y19236D01*
X8944Y19330D01*
X9108Y19420D01*
X9274Y19506D01*
X9442Y19588D01*
X9612Y19666D01*
X9784Y19740D01*
X9958Y19809D01*
X10133Y19875D01*
X10310Y19935D01*
X10488Y19992D01*
X10668Y20044D01*
X10848Y20092D01*
X11030Y20135D01*
X11213Y20174D01*
X11397Y20208D01*
X11582Y20238D01*
X11767Y20263D01*
X11953Y20283D01*
X12139Y20299D01*
X12326Y20311D01*
X12513Y20318D01*
X12700Y20320D01*
X12887Y20318D01*
X13074Y20311D01*
X13261Y20299D01*
X13447Y20283D01*
X13633Y20263D01*
X13818Y20238D01*
X14003Y20208D01*
X14187Y20174D01*
X14370Y20135D01*
X14552Y20092D01*
X14732Y20044D01*
X14912Y19992D01*
X15090Y19935D01*
X15267Y19875D01*
X15442Y19809D01*
X15616Y19740D01*
X15788Y19666D01*
X15958Y19588D01*
X16126Y19506D01*
X16292Y19420D01*
X16456Y19330D01*
X16617Y19236D01*
X16777Y19138D01*
X16933Y19036D01*
X17088Y18930D01*
X17239Y18820D01*
X17388Y18707D01*
X17534Y18590D01*
X17677Y18470D01*
X17817Y18346D01*
X17954Y18219D01*
X18088Y18088D01*
X18219Y17954D01*
X18346Y17817D01*
X18470Y17677D01*
X18590Y17534D01*
X18707Y17388D01*
X18820Y17239D01*
X18930Y17088D01*
X19036Y16933D01*
X19138Y16777D01*
X19236Y16617D01*
X19330Y16456D01*
X19420Y16292D01*
X19506Y16126D01*
X19588Y15958D01*
X19666Y15788D01*
X19740Y15616D01*
X19809Y15442D01*
X19875Y15267D01*
X19935Y15090D01*
X19992Y14912D01*
X20044Y14732D01*
X20092Y14552D01*
X20135Y14370D01*
X20174Y14187D01*
X20208Y14003D01*
X20238Y13818D01*
X20263Y13633D01*
X20283Y13447D01*
X20299Y13261D01*
X20311Y13074D01*
X20318Y12887D01*
X20320Y12700D01*
X20318Y12513D01*
X20311Y12326D01*
X20299Y12139D01*
X20283Y11953D01*
X20263Y11767D01*
X20238Y11582D01*
X20208Y11397D01*
X20174Y11213D01*
X20135Y11030D01*
X20092Y10848D01*
X20044Y10668D01*
X19992Y10488D01*
X19935Y10310D01*
X19875Y10133D01*
X19809Y9958D01*
X19740Y9784D01*
X19666Y9612D01*
X19588Y9442D01*
X19506Y9274D01*
X19420Y9108D01*
X19330Y8944D01*
X19236Y8783D01*
X19138Y8623D01*
X19036Y8467D01*
X18930Y8312D01*
X18820Y8161D01*
X18707Y8012D01*
X18590Y7866D01*
X18470Y7723D01*
X18346Y7583D01*
X18219Y7446D01*
X18088Y7312D01*
X17954Y7181D01*
X17817Y7054D01*
X17677Y6930D01*
X17534Y6810D01*
X17388Y6693D01*
X17239Y6580D01*
X17088Y6470D01*
X16933Y6364D01*
X16777Y6262D01*
X16617Y6164D01*
X16456Y6070D01*
X16292Y5980D01*
X16126Y5894D01*
X15958Y5812D01*
X15788Y5734D01*
X15616Y5660D01*
X15442Y5591D01*
X15267Y5525D01*
X15090Y5465D01*
X14912Y5408D01*
X14732Y5356D01*
X14552Y5308D01*
X14370Y5265D01*
X14187Y5226D01*
X14003Y5192D01*
X13818Y5162D01*
X13633Y5137D01*
X13447Y5117D01*
X13261Y5101D01*
X13074Y5089D01*
X12887Y5082D01*
X12700Y5080D01*
X12513Y5082D01*
X12326Y5089D01*
X12139Y5101D01*
X11953Y5117D01*
X11767Y5137D01*
X11582Y5162D01*
X11397Y5192D01*
X11213Y5226D01*
X11030Y5265D01*
X10848Y5308D01*
X10668Y5356D01*
X10488Y5408D01*
X10310Y5465D01*
X10133Y5525D01*
X9958Y5591D01*
X9784Y5660D01*
X9612Y5734D01*
X9442Y5812D01*
X9274Y5894D01*
X9108Y5980D01*
X8944Y6070D01*
X8783Y6164D01*
X8623Y6262D01*
X8467Y6364D01*
X8312Y6470D01*
X8161Y6580D01*
X8012Y6693D01*
X7866Y6810D01*
X7723Y6930D01*
X7583Y7054D01*
X7446Y7181D01*
X7312Y7312D01*
X7181Y7446D01*
X7054Y7583D01*
X6930Y7723D01*
X6810Y7866D01*
X6693Y8012D01*
X6580Y8161D01*
X6470Y8312D01*
X6364Y8467D01*
X6262Y8623D01*
X6164Y8783D01*
X6070Y8944D01*
X5980Y9108D01*
X5894Y9274D01*
X5812Y9442D01*
X5734Y9612D01*
X5660Y9784D01*
X5591Y9958D01*
X5525Y10133D01*
X5465Y10310D01*
X5408Y10488D01*
X5356Y10668D01*
X5308Y10848D01*
X5265Y11030D01*
X5226Y11213D01*
X5192Y11397D01*
X5162Y11582D01*
X5137Y11767D01*
X5117Y11953D01*
X5101Y12139D01*
X5089Y12326D01*
X5082Y12513D01*
X5080Y12700D01*
D27*
X12700Y12700D03*
D28*
X452467Y306813D02*
X452467Y311727D01*
X452467Y306813D02*
X444553Y306813D01*
X444553Y311727D01*
X452467Y311727D01*
X452467Y310631D02*
X444553Y310631D01*
X452467Y316313D02*
X452467Y321227D01*
X452467Y316313D02*
X444553Y316313D01*
X444553Y321227D01*
X452467Y321227D01*
X452467Y320131D02*
X444553Y320131D01*
X452467Y325813D02*
X452467Y330727D01*
X452467Y325813D02*
X444553Y325813D01*
X444553Y330727D01*
X452467Y330727D01*
X452467Y329631D02*
X444553Y329631D01*
X426567Y330727D02*
X426567Y325813D01*
X418653Y325813D01*
X418653Y330727D01*
X426567Y330727D01*
X426567Y329631D02*
X418653Y329631D01*
X426567Y311727D02*
X426567Y306813D01*
X418653Y306813D01*
X418653Y311727D01*
X426567Y311727D01*
X426567Y310631D02*
X418653Y310631D01*
D11*
X404021Y314741D02*
X404021Y305799D01*
X396079Y305799D01*
X396079Y314741D01*
X404021Y314741D01*
X404021Y309685D02*
X396079Y309685D01*
X396079Y313571D02*
X404021Y313571D01*
X404021Y322799D02*
X404021Y331741D01*
X404021Y322799D02*
X396079Y322799D01*
X396079Y331741D01*
X404021Y331741D01*
X404021Y326685D02*
X396079Y326685D01*
X396079Y330571D02*
X404021Y330571D01*
M02*
