M48
;GenerationSoftware,Autodesk,EAGLE,9.2.1*%
;CreationDate,2018-11-09T16:13:06Z*%
FMAT,2
ICI,OFF
METRIC,TZ,000.000
T8C0.400
T7C0.600
T6C0.813
T5C0.950
T4C1.016
T3C2.300
T2C3.200
%
G90
M71
T2
X15240Y50800
X13970Y2540
X90170Y50800
X96520Y2540
T3
X3810Y32080
X3810Y44120
T4
X48260Y50800
X68580Y50800
X50800Y2540
X68580Y2540
X66040Y2540
X63500Y2540
X60960Y2540
X58420Y2540
X55880Y2540
X53340Y2540
X31496Y50800
X50800Y50800
X53340Y50800
X55880Y50800
X58420Y50800
X60960Y50800
X63500Y50800
X45720Y50800
X26416Y50800
X28956Y50800
X45720Y2540
X86360Y2540
X2667Y16764
X5207Y16764
X2667Y14224
X5207Y14224
X2667Y11684
X5207Y11684
X76200Y2540
X78740Y2540
X81280Y2540
X83820Y2540
X86360Y50800
X88900Y2540
X91440Y2540
X73660Y2540
X71120Y50800
X73660Y50800
X76200Y50800
X78740Y50800
X81280Y50800
X83820Y50800
X96520Y27940
X93980Y12700
X96520Y15240
X93980Y15240
X96520Y17780
X93980Y17780
X96520Y20320
X93980Y20320
X96520Y22860
X93980Y22860
X96520Y25400
X93980Y25400
X96520Y12700
X93980Y27940
X43180Y2540
X40640Y2540
X38100Y2540
X34036Y50800
X93980Y7620
X96520Y7620
X93980Y50800
X96520Y50800
X33020Y2540
X35560Y2540
X93980Y38100
X36576Y50800
X39116Y50800
X41656Y50800
X23876Y50800
X96520Y30480
X93980Y30480
X96520Y33020
X93980Y33020
X96520Y35560
X93980Y35560
X96520Y38100
X96520Y40640
X93980Y40640
X96520Y43180
X93980Y43180
X96520Y45720
X93980Y45720
X96520Y48260
X93980Y48260
X96520Y10160
X93980Y10160
T5
X8520Y36850
X8520Y39350
X6520Y39350
X6520Y36850
T6
X21590Y43180
X16510Y35560
X13970Y35560
X13970Y43180
X16510Y43180
X19050Y43180
X53340Y27940
X53340Y10160
X53340Y12700
X53340Y15240
X53340Y17780
X53340Y20320
X53340Y22860
X53340Y25400
X38735Y43180
X19050Y35560
X21590Y35560
X26035Y35560
X28575Y35560
X41275Y35560
X43815Y35560
X31115Y35560
X33655Y35560
X38735Y35560
X36195Y35560
X46355Y35560
X48895Y35560
X48895Y43180
X46355Y43180
X43815Y43180
X41275Y43180
X68580Y22860
X72390Y40640
X72390Y30480
X72390Y27940
X72390Y25400
X72390Y22860
X72390Y20320
X72390Y17780
X72390Y15240
X72390Y12700
X72390Y10160
X68580Y10160
X68580Y12700
X68580Y15240
X68580Y17780
X68580Y20320
X53340Y30480
X68580Y25400
X72390Y33020
X68580Y27940
X68580Y30480
X68580Y33020
X68580Y35560
X68580Y38100
X68580Y40640
X68580Y43180
X53340Y43180
X53340Y40640
X53340Y38100
X53340Y35560
X53340Y33020
X22860Y10160
X33020Y10160
X30480Y12700
X30480Y10160
X27940Y12700
X27940Y10160
X25400Y12700
X25400Y10160
X22860Y12700
X35560Y12700
X20320Y12700
X20320Y10160
X17780Y12700
X20320Y15240
X17780Y15240
X20320Y17780
X17780Y17780
X20320Y20320
X33020Y12700
X35560Y15240
X33020Y15240
X35560Y17780
X33020Y17780
X35560Y20320
X33020Y20320
X35560Y22860
X33020Y22860
X35560Y25400
X33020Y27940
X33020Y25400
X30480Y27940
X30480Y25400
X27940Y27940
X49505Y17780
X33655Y43180
X31115Y43180
X28575Y43180
X26035Y43180
X41885Y27940
X41885Y25400
X41885Y12700
X41885Y10160
X41885Y22860
X41885Y20320
X41885Y15240
X41885Y17780
X49505Y10160
X49505Y12700
X49505Y15240
X36195Y43180
X49505Y20320
X49505Y22860
X49505Y25400
X49505Y27940
X27940Y25400
X25400Y27940
X25400Y25400
X22860Y27940
X22860Y25400
X20320Y27940
X17780Y25400
X20320Y25400
X17780Y22860
X20320Y22860
X17780Y20320
X72390Y38100
X87630Y10160
X87630Y12700
X87630Y15240
X87630Y17780
X87630Y20320
X87630Y22860
X87630Y25400
X87630Y27940
X87630Y33020
X87630Y35560
X87630Y38100
X87630Y40640
X87630Y43180
X72390Y43180
X72390Y35560
X87630Y30480
T7
X15494Y5461
X30734Y3048
T8
X29083Y46609
X26035Y37846
X26162Y31369
X26035Y39624
X46609Y32004
X762Y45085
X762Y38862
X3302Y37465
X3302Y34925
X7493Y35433
X93980Y5080
X7493Y38100
X13843Y16891
X12827Y18288
X11049Y17526
X9652Y21971
X3175Y21971
X6223Y21971
X9017Y14351
X81534Y7366
X67183Y46101
X73787Y46101
X76962Y43180
X89408Y4318
X92202Y7112
X34925Y33655
X19685Y39370
X25781Y1651
X40005Y36576
X13843Y39243
X19812Y33655
X34925Y41275
X29845Y41275
X31369Y15240
X23368Y19050
X25654Y22860
X15875Y28575
X15875Y31115
X19685Y37465
X8509Y41148
X4318Y50165
X9398Y50292
X35941Y47752
X26797Y45212
X96520Y5080
X44450Y1016
X39370Y1016
X11938Y1016
X5461Y762
X1270Y3810
X6477Y6604
X6477Y3937
X2667Y52578
X2286Y46101
X9906Y33655
X11049Y31115
X7620Y31369
X4318Y29718
X11938Y26162
X9525Y26162
X3810Y26162
X6477Y26162
X6477Y9906
X6985Y11303
X762Y50165
X10668Y2159
X66040Y6604
X87376Y7366
X74168Y8763
X75438Y7366
X57023Y7366
X71120Y1270
X71120Y2540
X48260Y1270
X48260Y2540
X23241Y4826
X25781Y19050
X99568Y30480
X99568Y24130
X99568Y17780
X99568Y11430
X99568Y5080
X43688Y52070
X43688Y50800
X66040Y52070
X66040Y50800
X87630Y45085
X66548Y48387
X39624Y10160
X99568Y36830
X30480Y23749
X21463Y19050
X21590Y24130
X30099Y18161
X31750Y21590
X12573Y45720
X15240Y48387
X21590Y50927
X18415Y52578
X7112Y52578
X12827Y52578
X56134Y16510
X62357Y46101
X61468Y22733
X61468Y45466
X60579Y20320
X60579Y46101
X59690Y17780
X59055Y46228
X58765Y15240
X58039Y45847
X57912Y11430
X57404Y44958
X57023Y13970
X62357Y27940
X46355Y7239
X46684Y16510
X45466Y9017
X46720Y19177
X61508Y10160
X62397Y23241
X44577Y11430
X47264Y26670
X50800Y29627
X51562Y31750
X51562Y33909
X75184Y43180
X17780Y48006
X17272Y6604
X26797Y47752
X10668Y8509
X25867Y7956
X63246Y6731
X62357Y6096
X24997Y7153
X27682Y16895
X27686Y18034
X15494Y25527
X19050Y48260
X18161Y49911
X75184Y29210
X22860Y44450
X64085Y5969
X25777Y6346
X65091Y5655
X25019Y5461
X29591Y47752
X27686Y4953
X11049Y15370
X6477Y2159
X57785Y9017
X59055Y9017
X88646Y48006
X9398Y44577
X9398Y46736
X20320Y31115
X46736Y20320
X48133Y9017
X48133Y11430
X68834Y8763
X47244Y25400
X55626Y9017
X12573Y35433
X92329Y12319
X92456Y46990
X13843Y6731
X92456Y44450
X28575Y21590
X22606Y22479
X23876Y21209
X51562Y7493
X85090Y52451
X95250Y52451
X98298Y49530
X85344Y43180
X15240Y8763
X37084Y10160
X28321Y38227
X51308Y44196
X45847Y30226
X47224Y13990
X47686Y24130
X31115Y38333
X33655Y39116
X36195Y39878
X38735Y39116
X41275Y38354
X50292Y35560
X29210Y14097
X24130Y14097
X29845Y33655
X32385Y33655
X89916Y43180
X85979Y11430
X89281Y11430
X89281Y24130
X70993Y6985
X85979Y24130
X75184Y24130
X92329Y25019
X75438Y11430
X19812Y4826
M30